<svg width="13" height="15" viewBox="0 0 13 15" fill="none" xmlns="http://www.w3.org/2000/svg">
<path fillRule="evenodd" clip-rule="evenodd" d="M0.0984802 0.533888V13.9801C0.0984802 14.1433 0.162713 14.2999 0.277288 14.4161C0.518092 14.6603 0.911279 14.6631 1.1555 14.4223L6.46421 9.18777L11.7729 14.4223C11.8891 14.5369 12.0458 14.6011 12.2089 14.6011C12.5519 14.6011 12.8299 14.3231 12.8299 13.9801V0.533888C12.8299 0.362403 12.6909 0.223389 12.5194 0.223389H0.408981C0.237496 0.223389 0.0984802 0.362403 0.0984802 0.533888ZM1.02973 13.2379V1.1549H11.8982V13.2379L6.89997 8.30952C6.65818 8.07111 6.26973 8.07111 6.02794 8.30952L1.02973 13.2379Z" fill="var(--text-primary)"/>
</svg>
