<svg width="18" height="19" viewBox="0 0 18 19" fill="none" xmlns="http://www.w3.org/2000/svg">
<path fill-rule="evenodd" clip-rule="evenodd" d="M5.50569 8.06338L9.00173 4.56887L12.4992 8.06623L14.5323 6.03179L9.00173 0.5L3.47119 6.03037L5.50569 8.06338ZM6.10352e-05 9.50027L2.03382 7.46658L4.06757 9.50027L2.03382 11.534L6.10352e-05 9.50027ZM9.00171 14.4324L5.50567 10.9365L3.46832 12.9681L3.47117 12.9709L9.00171 18.4999L14.5323 12.9681L14.5337 12.9667L12.4992 10.9351L9.00171 14.4324ZM13.9322 9.50073L15.9659 7.46704L17.9997 9.50073L15.9659 11.5344L13.9322 9.50073ZM9.00139 7.43481L11.0643 9.49911H11.0657L11.0643 9.50053L9.00139 11.5648L6.93845 9.50337L6.93561 9.49911L6.93845 9.49626L7.29957 9.13515L7.47587 8.96029L9.00139 7.43481Z" fill="#F3BA2F"/>
</svg>
