<svg width="18" height="24" viewBox="0 0 18 24" fill="none" xmlns="http://www.w3.org/2000/svg">
<path fill-rule="evenodd" clip-rule="evenodd" d="M16.2531 7.49706C16.0063 4.9369 13.7962 4.07859 11.0058 3.83412L11.0057 0.282739L8.84347 0.28311L8.84361 3.74089C8.27591 3.74082 7.69501 3.75205 7.11789 3.76356L7.11821 0.282888L4.95767 0.282825L4.95688 3.83319C4.48886 3.84275 4.02925 3.85144 3.58108 3.85174L3.5808 3.84073L0.599292 3.83971L0.59986 6.14847C0.59986 6.14847 2.19619 6.11804 2.16966 6.14744C3.04526 6.1477 3.33081 6.65588 3.41313 7.09468L3.41332 11.1404C3.47374 11.1408 3.55256 11.1433 3.64181 11.1555L3.41404 11.1557L3.41291 16.8235C3.37449 17.0991 3.21251 17.5385 2.60076 17.5395C2.62842 17.564 1.02937 17.5391 1.02937 17.5391L0.600005 20.1213L3.41373 20.1211C3.73145 20.1214 4.04607 20.1248 4.35725 20.1282L4.35729 20.1282C4.55882 20.1304 4.7589 20.1326 4.95743 20.1339L4.95849 23.7263L7.11787 23.7267L7.11838 20.1727C7.7107 20.1851 8.28448 20.1898 8.84465 20.1893L8.84371 23.7267L11.0054 23.7265L11.0061 20.1411C14.6403 19.9325 17.1845 19.0168 17.4994 15.6049C17.7544 12.8568 16.4623 11.6305 14.3991 11.1345C15.6522 10.4951 16.4357 9.37067 16.2525 7.49721L16.2531 7.49706ZM13.2279 15.1773C13.2285 17.641 9.35753 17.5867 7.58799 17.5619C7.42953 17.5596 7.28792 17.5577 7.16745 17.5577L7.16799 12.7988C7.31527 12.7988 7.49415 12.7946 7.69678 12.7898C9.51037 12.747 13.2271 12.6593 13.2285 15.1772L13.2279 15.1773ZM7.52374 10.6245C9.00111 10.6487 12.2214 10.7014 12.222 8.46305C12.2223 6.17322 9.12419 6.25552 7.61111 6.29572C7.44101 6.30024 7.29095 6.30422 7.16756 6.30425L7.16744 10.6204C7.26928 10.6204 7.38929 10.6223 7.52374 10.6245Z" fill="#F4FFFC"/>
</svg>
