<svg width="30" height="35" viewBox="0 0 30 35" fill="none" xmlns="http://www.w3.org/2000/svg">
<path opacity="0.2" d="M14.8746 34.6953C22.7914 34.6953 29.2093 27.0702 29.2093 17.6641C29.2093 8.25797 22.7914 0.632812 14.8746 0.632812C6.95782 0.632812 0.539978 8.25797 0.539978 17.6641C0.539978 27.0702 6.95782 34.6953 14.8746 34.6953Z" fill="#00CBA0"/>
<path fill-rule="evenodd" clip-rule="evenodd" d="M14.842 34.6179C22.7409 34.6179 29.1441 27.0101 29.1441 17.6254C29.1441 8.24064 22.7409 0.632812 14.842 0.632812C6.94323 0.632812 0.539978 8.24064 0.539978 17.6254C0.539978 27.0101 6.94323 34.6179 14.842 34.6179Z" fill="#002352"/>
<path fill-rule="evenodd" clip-rule="evenodd" d="M9.02431 14.469H16.3806C16.3806 14.469 18.9198 14.4411 17.1637 18.3008C17.1637 18.3008 15.8823 21.3214 12.7025 21.2655L14.4182 16.1086C14.4596 15.9836 14.4466 15.8427 14.3833 15.7312C14.3201 15.6197 14.2145 15.5517 14.1007 15.5492L11.8482 15.5039L9.00058 23.6708C9.00058 23.6708 9.94978 23.7827 10.4718 23.7268L10.1871 24.5658H11.5326C11.6082 24.5657 11.6758 24.5105 11.7025 24.4271L11.9431 23.6708L12.5126 23.6149L12.1804 24.5658H13.4903C13.5878 24.5658 13.6753 24.4954 13.711 24.3885L14.0793 23.2793C14.0793 23.2793 18.066 22.4961 19.8694 18.6924C19.8694 18.6924 22.2899 14.2733 19.4423 12.707C18.8873 12.4071 18.2939 12.2181 17.6863 12.1476L18.0213 11.1821C18.0419 11.1228 18.036 11.0552 18.0056 11.002C17.9752 10.9488 17.9244 10.9169 17.8699 10.917H16.6417L16.262 12.0917H15.7399L16.0347 11.1793C16.0539 11.1198 16.047 11.0529 16.0163 11.0005C15.9856 10.9481 15.9349 10.9169 15.8809 10.917H14.6469L14.2672 12.0917H10.4329C10.2226 12.091 10.0292 12.2277 9.9308 12.4469L9.02431 14.469Z" fill="white"/>
</svg>
