<svg width="26" height="26" viewBox="0 0 26 26" fill="none" xmlns="http://www.w3.org/2000/svg">
<path d="M14.1061 15.023L13.4029 12.875L14.2815 11.7061L13.8688 10.4434L13.8417 10.423L12.9769 11.5736L11.7961 7.96689L9.4792 9.47151L11.0178 14.1798L10.3374 15.085L10.7635 16.3864L11.4434 15.4819L12.3502 18.2568L18.5164 14.2524L17.9555 12.5232L14.1061 15.023Z" fill="#017F04"/>
<path fill-rule="evenodd" clip-rule="evenodd" d="M13 22C17.9706 22 22 17.9706 22 13C22 8.02944 17.9706 4 13 4C8.02944 4 4 8.02944 4 13C4 17.9706 8.02944 22 13 22Z" stroke="#017F04"/>
<path opacity="0.2" d="M13 26C20.1797 26 26 20.1797 26 13C26 5.8203 20.1797 0 13 0C5.8203 0 0 5.8203 0 13C0 20.1797 5.8203 26 13 26Z" fill="#017F04"/>
</svg>
