<svg width="14" height="14" viewBox="0 0 14 14" fill="none" xmlns="http://www.w3.org/2000/svg">
<path fill-rule="evenodd" clip-rule="evenodd" d="M7.58924 0.577086C7.2638 0.251649 6.73616 0.251649 6.41072 0.577086C6.08529 0.902522 6.08529 1.43016 6.41072 1.7556L10.8215 6.16634H1.16665C0.706409 6.16634 0.333313 6.53944 0.333313 6.99968C0.333313 7.45991 0.706409 7.83301 1.16665 7.83301H10.8215L6.41072 12.2438C6.08529 12.5692 6.08529 13.0968 6.41072 13.4223C6.73616 13.7477 7.2638 13.7477 7.58924 13.4223L13.4226 7.58893C13.748 7.26349 13.748 6.73586 13.4226 6.41042L7.58924 0.577086Z" fill="url(#paint0_linear_170_457)"/>
<defs>
<linearGradient id="paint0_linear_170_457" x1="13.0241" y1="12.714" x2="-1.49292" y2="8.96897" gradientUnits="userSpaceOnUse">
<stop stop-color="#2FD9A2"/>
<stop offset="0.483782" stop-color="#68D337"/>
<stop offset="1" stop-color="#2EC758"/>
</linearGradient>
</defs>
</svg>
