<svg width="20" height="20" viewBox="0 0 20 20" fill="none" xmlns="http://www.w3.org/2000/svg">
<path fill-rule="evenodd" clip-rule="evenodd" d="M3.33334 6.66699C2.87311 6.66699 2.50001 7.04009 2.50001 7.50033V15.8337C2.50001 16.2939 2.87311 16.667 3.33334 16.667H16.6667C17.1269 16.667 17.5 16.2939 17.5 15.8337V7.50033C17.5 7.04009 17.1269 6.66699 16.6667 6.66699H3.33334ZM0.833344 7.50033C0.833344 6.11961 1.95263 5.00033 3.33334 5.00033H16.6667C18.0474 5.00033 19.1667 6.11961 19.1667 7.50033V15.8337C19.1667 17.2144 18.0474 18.3337 16.6667 18.3337H3.33334C1.95263 18.3337 0.833344 17.2144 0.833344 15.8337V7.50033Z" fill="url(#paint0_linear_119_2464)"/>
<path fill-rule="evenodd" clip-rule="evenodd" d="M6.56558 2.39923C7.03442 1.93038 7.6703 1.66699 8.33334 1.66699H11.6667C12.3297 1.66699 12.9656 1.93038 13.4344 2.39923C13.9033 2.86807 14.1667 3.50395 14.1667 4.16699V17.5003C14.1667 17.9606 13.7936 18.3337 13.3333 18.3337C12.8731 18.3337 12.5 17.9606 12.5 17.5003V4.16699C12.5 3.94598 12.4122 3.73402 12.2559 3.57774C12.0997 3.42146 11.8877 3.33366 11.6667 3.33366H8.33334C8.11233 3.33366 7.90037 3.42146 7.74409 3.57774C7.58781 3.73402 7.50001 3.94598 7.50001 4.16699V17.5003C7.50001 17.9606 7.12691 18.3337 6.66668 18.3337C6.20644 18.3337 5.83334 17.9606 5.83334 17.5003V4.16699C5.83334 3.50395 6.09674 2.86807 6.56558 2.39923Z" fill="url(#paint1_linear_119_2464)"/>
<defs>
<linearGradient id="paint0_linear_119_2464" x1="18.2831" y1="17.1432" x2="-1.41956" y2="11.5521" gradientUnits="userSpaceOnUse">
<stop stop-color="#2FD9A2"/>
<stop offset="0.483782" stop-color="#68D337"/>
<stop offset="1" stop-color="#2EC758"/>
</linearGradient>
<linearGradient id="paint1_linear_119_2464" x1="18.2831" y1="17.1432" x2="-1.41956" y2="11.5521" gradientUnits="userSpaceOnUse">
<stop stop-color="#2FD9A2"/>
<stop offset="0.483782" stop-color="#68D337"/>
<stop offset="1" stop-color="#2EC758"/>
</linearGradient>
</defs>
</svg>
