<svg width="20" height="20" viewBox="0 0 20 20" fill="none" xmlns="http://www.w3.org/2000/svg">
<path fill-rule="evenodd" clip-rule="evenodd" d="M3.72039 12.8874C4.50179 12.106 5.5616 11.667 6.66667 11.667H13.3333C14.4384 11.667 15.4982 12.106 16.2796 12.8874C17.061 13.6688 17.5 14.7286 17.5 15.8337V17.5003C17.5 17.9606 17.1269 18.3337 16.6667 18.3337C16.2064 18.3337 15.8333 17.9606 15.8333 17.5003V15.8337C15.8333 15.1706 15.5699 14.5347 15.1011 14.0659C14.6323 13.5971 13.9964 13.3337 13.3333 13.3337H6.66667C6.00363 13.3337 5.36774 13.5971 4.8989 14.0659C4.43006 14.5347 4.16667 15.1706 4.16667 15.8337V17.5003C4.16667 17.9606 3.79357 18.3337 3.33333 18.3337C2.8731 18.3337 2.5 17.9606 2.5 17.5003V15.8337C2.5 14.7286 2.93899 13.6688 3.72039 12.8874Z" fill="white"/>
<path fill-rule="evenodd" clip-rule="evenodd" d="M10 3.33366C8.6193 3.33366 7.50001 4.45295 7.50001 5.83366C7.50001 7.21437 8.6193 8.33366 10 8.33366C11.3807 8.33366 12.5 7.21437 12.5 5.83366C12.5 4.45295 11.3807 3.33366 10 3.33366ZM5.83334 5.83366C5.83334 3.53247 7.69882 1.66699 10 1.66699C12.3012 1.66699 14.1667 3.53247 14.1667 5.83366C14.1667 8.13485 12.3012 10.0003 10 10.0003C7.69882 10.0003 5.83334 8.13485 5.83334 5.83366Z" fill="white"/>
<defs>
<linearGradient id="paint0_linear_119_2464" x1="18.2831" y1="17.1432" x2="-1.41956" y2="11.5521" gradientUnits="userSpaceOnUse">
<stop stop-color="#2FD9A2"/>
<stop offset="0.483782" stop-color="#68D337"/>
<stop offset="1" stop-color="#2EC758"/>
</linearGradient>
<linearGradient id="paint1_linear_119_2464" x1="18.2831" y1="17.1432" x2="-1.41956" y2="11.5521" gradientUnits="userSpaceOnUse">
<stop stop-color="#2FD9A2"/>
<stop offset="0.483782" stop-color="#68D337"/>
<stop offset="1" stop-color="#2EC758"/>
</linearGradient>
</defs>
</svg>
