<?xml version="1.0" standalone="no"?>
<!DOCTYPE svg PUBLIC "-//W3C//DTD SVG 20010904//EN"
 "http://www.w3.org/TR/2001/REC-SVG-20010904/DTD/svg10.dtd">
<svg version="1.0" xmlns="http://www.w3.org/2000/svg"
 width="20" height="20" viewBox="0 0 512 512"
 preserveAspectRatio="xMidYMid meet">

<g transform="translate(0.000000,512.000000) scale(0.100000,-0.100000)"
fill="#00ff36" stroke="none">
<path d="M2460 5043 c-258 -265 -459 -604 -585 -988 -105 -316 -144 -558 -152
-925 l-6 -256 -61 -33 c-225 -125 -384 -333 -486 -640 -58 -174 -105 -470 -86
-546 15 -57 -52 -55 1474 -55 996 0 1408 3 1431 11 41 14 51 35 51 105 0 196
-76 498 -176 695 -96 192 -252 358 -411 438 l-43 21 0 138 c0 832 -260 1533
-758 2050 -83 85 -95 84 -192 -15z m190 -210 c402 -481 610 -1101 610 -1822 0
-371 -70 -835 -176 -1177 l-26 -84 -496 2 -496 3 -23 75 c-158 511 -213 1101
-153 1625 42 366 188 793 373 1091 86 139 277 384 299 384 3 0 43 -44 88 -97z
m-905 -2278 c27 -228 87 -530 144 -727 10 -36 17 -69 13 -72 -3 -3 -153 -6
-334 -6 l-328 0 0 44 c0 25 9 93 21 152 52 272 157 493 304 640 61 62 158 132
162 117 1 -4 9 -71 18 -148z m1731 102 c206 -153 343 -422 400 -782 7 -49 14
-98 14 -107 0 -17 -22 -18 -328 -18 -181 0 -331 3 -334 6 -4 3 3 36 13 72 66
226 126 544 154 810 4 34 11 62 15 62 4 0 34 -20 66 -43z"/>
<path d="M2480 4060 c-193 -35 -337 -174 -387 -373 -42 -174 46 -388 202 -492
85 -56 155 -77 260 -78 109 0 180 19 262 72 226 146 287 441 137 666 -103 156
-291 237 -474 205z m197 -171 c223 -84 279 -379 103 -543 -122 -114 -318 -114
-440 0 -152 143 -135 387 37 505 91 63 196 76 300 38z"/>
<path d="M2144 1253 c-12 -2 -30 -13 -40 -25 -17 -18 -19 -38 -19 -192 1 -245
40 -416 140 -616 104 -209 275 -420 340 -420 52 0 198 165 296 336 130 226
189 452 189 725 0 128 0 129 -29 161 l-29 33 -414 1 c-227 1 -423 0 -434 -3z
m743 -285 c-9 -208 -66 -395 -178 -583 -60 -100 -137 -197 -152 -192 -18 6
-109 129 -156 211 -101 177 -158 371 -168 569 l-6 127 333 0 333 0 -6 -132z"/>
</g>
</svg>
