<?xml version="1.0" standalone="no"?>
<!DOCTYPE svg PUBLIC "-//W3C//DTD SVG 20010904//EN"
 "http://www.w3.org/TR/2001/REC-SVG-20010904/DTD/svg10.dtd">
<svg version="1.0" xmlns="http://www.w3.org/2000/svg"
 width="19" height="19" viewBox="0 0 512.000000 512.000000"
 preserveAspectRatio="xMidYMid meet">

<g transform="translate(0.000000,512.000000) scale(0.100000,-0.100000)"
fill="red" stroke="none">
<path d="M759 3813 c-114 -59 -152 -195 -82 -299 40 -59 1342 -1335 1385
-1356 42 -22 126 -26 173 -8 17 6 146 127 293 273 l264 262 479 -485 479 -485
-193 -6 c-208 -6 -239 -13 -290 -65 -117 -117 -66 -310 92 -354 48 -13 914
-13 962 0 61 17 102 52 131 109 l28 55 0 466 0 466 -27 55 c-67 131 -232 157
-337 52 -52 -51 -59 -82 -65 -286 l-6 -187 -553 562 c-305 310 -573 574 -595
588 -52 31 -143 34 -197 6 -19 -10 -151 -133 -292 -274 l-257 -255 -556 549
c-305 302 -576 566 -601 586 -78 64 -150 73 -235 31z"/>
</g>
</svg>
